<svg xmlns="http://www.w3.org/2000/svg" version="1.1" xmlns:xlink="http://www.w3.org/1999/xlink" width="512" height="512" x="0" y="0" viewBox="0 0 64 64" style="enable-background:new 0 0 512 512" xml:space="preserve" class=""><g><path d="M14.4 19.59c0 8.71 6.41 16.07 14.88 17.4l-2.05 3.53c-.28.48-.28 1.08 0 1.56.27.48.79.77 1.34.77H31V61c0 .55.45 1 1 1s1-.45 1-1V42.85h2.43c.55 0 1.07-.3 1.34-.78.28-.48.28-1.07 0-1.55l-2.05-3.53c8.47-1.33 14.88-8.68 14.88-17.4C49.6 9.89 41.71 2 32 2S14.4 9.89 14.4 19.59zM32 7.53c.55 0 1 .45 1 1s-.45 1-1 1c-5.55 0-10.07 4.51-10.07 10.06 0 .56-.44 1-1 1-.55 0-1-.44-1-1 0-6.65 5.42-12.06 12.07-12.06z" fill="#000000" opacity="1" data-original="#000000"></path></g></svg>